<svg id="Layer_1" data-name="Layer 1" xmlns="http://www.w3.org/2000/svg" viewBox="0 0 30.4 28"><defs><style>.cls-1{fill:#61bab2;}.cls-2{fill:#d1fffa;}</style></defs><path class="cls-1" d="M20,7A13,13,0,1,1,7,20,13,13,0,0,1,20,7m0-1A14,14,0,1,0,34,20,14,14,0,0,0,20,6Z" transform="translate(-6 -6)"/><path class="cls-1" d="M19.38,22.48" transform="translate(-6 -6)"/><path class="cls-2" d="M18.45,28a.53.53,0,0,0,.63-.05l17-15.69a1.14,1.14,0,0,0-1.61-1.61l-15,15.11a.51.51,0,0,1-.65.07l-9.15-6a1.14,1.14,0,0,0-1.24,1.91Z" transform="translate(-6 -6)"/></svg>