<svg id="Layer_1" data-name="Layer 1" xmlns="http://www.w3.org/2000/svg" viewBox="0 0 32.05 30.68"><defs><style>.cls-1{fill:#61bab2;}.cls-2{fill:#d1fffa;}</style></defs><rect class="cls-1" x="18" y="-1.24" width="4" height="42.48" rx="1.8" transform="translate(-12.25 16.05) rotate(-46.44)"/><path class="cls-2" d="M6.05,35.22a1.67,1.67,0,0,1-1.22-.53l-.27-.28A1.68,1.68,0,0,1,4.62,32L32.79,5.25A1.69,1.69,0,0,1,34,4.78a1.66,1.66,0,0,1,1.22.53l.27.28A1.68,1.68,0,0,1,35.38,8L7.21,34.75a1.69,1.69,0,0,1-1.16.47Z" transform="translate(-3.98 -4.66)"/><path class="cls-1" d="M34,4.91a1.56,1.56,0,0,1,1.13.48l.27.28a1.6,1.6,0,0,1,.42,1.12,1.52,1.52,0,0,1-.48,1.08L7.12,34.66a1.53,1.53,0,0,1-1.07.43,1.56,1.56,0,0,1-1.13-.48l-.27-.28a1.6,1.6,0,0,1-.42-1.12,1.52,1.52,0,0,1,.48-1.08L32.88,5.34A1.53,1.53,0,0,1,34,4.91m0-.25a1.75,1.75,0,0,0-1.24.5L4.54,32a1.8,1.8,0,0,0-.07,2.55l.27.28a1.82,1.82,0,0,0,1.31.56,1.75,1.75,0,0,0,1.24-.5L35.46,8.05a1.8,1.8,0,0,0,.07-2.55l-.27-.28A1.82,1.82,0,0,0,34,4.66Z" transform="translate(-3.98 -4.66)"/></svg>